<svg aria-hidden="true" style="position: absolute; width: 0; height: 0; overflow: hidden;" version="1.1" xmlns="http://www.w3.org/2000/svg" xmlns:xlink="http://www.w3.org/1999/xlink">
	<defs>
		<symbol id="icon-telegram" viewBox="0 0 38 32">
			<path d="M35.337 0.211l-33.569 13.033c-2.291 0.926-2.277 2.213-0.42 2.787l8.618 2.707 19.941-12.666c0.943-0.578 1.804-0.267 1.096 0.365l-16.155 14.681-0.595 8.945c0.871 0 1.255-0.403 1.743-0.877l4.187-4.099 8.707 6.476c1.605 0.89 2.758 0.432 3.158-1.497l5.715-27.123c0.584-2.362-0.897-3.432-2.427-2.733z">
			</path>
		</symbol>
		<symbol id="icon-instagram" viewBox="0 0 32 32">
			<path d="M9.404 0.096c1.707-0.078 2.25-0.096 6.596-0.096s4.89 0.019 6.595 0.096c1.705 0.077 2.869 0.348 3.886 0.743 1.109 0.426 2.054 1.054 2.833 1.846l0.001 0.001c0.794 0.779 1.421 1.723 1.827 2.778l0.018 0.053c0.395 1.018 0.666 2.182 0.745 3.884 0.078 1.709 0.096 2.253 0.096 6.598 0 4.346-0.019 4.89-0.096 6.596-0.077 1.702-0.348 2.866-0.745 3.883-0.424 1.109-1.051 2.055-1.844 2.834l-0.001 0.001c-0.779 0.793-1.724 1.42-2.779 1.826l-0.054 0.018c-1.018 0.395-2.182 0.666-3.884 0.745-1.707 0.078-2.251 0.096-6.598 0.096s-4.89-0.019-6.596-0.096c-1.702-0.077-2.866-0.348-3.884-0.745-1.109-0.424-2.055-1.052-2.833-1.844l-0.001-0.001c-0.794-0.779-1.422-1.724-1.828-2.779l-0.018-0.054c-0.394-1.019-0.665-2.183-0.743-3.885-0.078-1.708-0.096-2.252-0.096-6.597 0-4.346 0.019-4.89 0.096-6.595s0.348-2.869 0.743-3.887c0.425-1.109 1.053-2.054 1.846-2.832l0.001-0.001c0.779-0.793 1.723-1.421 2.778-1.828l0.054-0.018c1.018-0.394 2.183-0.665 3.884-0.743h0.001zM22.465 2.976c-1.687-0.077-2.193-0.092-6.465-0.092s-4.779 0.016-6.465 0.092c-1.561 0.071-2.407 0.331-2.972 0.551-0.747 0.292-1.28 0.636-1.84 1.196-0.518 0.504-0.925 1.118-1.185 1.805l-0.011 0.034c-0.22 0.565-0.48 1.411-0.551 2.972-0.077 1.687-0.092 2.194-0.092 6.465s0.016 4.779 0.092 6.465c0.071 1.561 0.331 2.407 0.551 2.972 0.256 0.694 0.665 1.323 1.196 1.84 0.504 0.518 1.118 0.925 1.805 1.185l0.034 0.011c0.565 0.22 1.411 0.48 2.972 0.551 1.687 0.077 2.192 0.092 6.465 0.092s4.779-0.016 6.465-0.092c1.561-0.071 2.407-0.331 2.972-0.551 0.747-0.292 1.28-0.636 1.84-1.196 0.518-0.504 0.925-1.118 1.185-1.805l0.011-0.034c0.22-0.565 0.48-1.411 0.551-2.972 0.077-1.687 0.092-2.193 0.092-6.465s-0.016-4.779-0.092-6.465c-0.071-1.561-0.331-2.407-0.551-2.972-0.292-0.747-0.636-1.28-1.196-1.84-0.504-0.518-1.118-0.925-1.805-1.185l-0.034-0.011c-0.565-0.22-1.411-0.48-2.972-0.551zM13.956 20.932c0.606 0.259 1.31 0.41 2.050 0.41 2.947 0 5.337-2.389 5.337-5.337 0-1.477-0.6-2.813-1.569-3.779l-0-0c-0.964-0.954-2.291-1.544-3.755-1.544-2.949 0-5.339 2.39-5.339 5.339 0 1.372 0.518 2.624 1.369 3.569l-0.004-0.005c0.521 0.573 1.158 1.030 1.876 1.334l0.035 0.013zM10.185 10.185c1.488-1.488 3.544-2.409 5.815-2.409 4.542 0 8.224 3.682 8.224 8.224 0 2.271-0.921 4.327-2.409 5.815v0c-1.488 1.488-3.544 2.409-5.815 2.409-4.542 0-8.224-3.682-8.224-8.224 0-2.271 0.921-4.327 2.409-5.815v0zM26.048 9.001c0.376-0.355 0.61-0.858 0.61-1.415 0-1.074-0.871-1.945-1.945-1.945-0.517 0-0.987 0.202-1.336 0.531l0.001-0.001c-0.376 0.356-0.611 0.858-0.611 1.415 0 1.074 0.871 1.945 1.945 1.945 0.517 0 0.987-0.202 1.336-0.531l-0.001 0.001z">
			</path>
		</symbol>
	</defs>
</svg>
